<svg width="277" height="60" viewBox="0 0 277 60" fill="none" xmlns="http://www.w3.org/2000/svg">
<path d="M26.7169 32.12V34.48L15.1169 28.12V26.6L26.7169 20.08V22.6L18.1969 27.36L26.7169 32.12ZM40.3056 36.28C38.3856 36.28 36.759 36.1333 35.4256 35.84C34.119 35.5467 33.0523 35.0533 32.2256 34.36C31.4256 33.64 30.839 32.68 30.4656 31.48C30.0923 30.2533 29.9056 28.7067 29.9056 26.84C29.9056 24.84 30.1456 23.2133 30.6256 21.96C31.1056 20.7067 31.8123 19.7467 32.7456 19.08C33.679 18.4133 34.799 17.96 36.1056 17.72C37.4123 17.48 38.9056 17.36 40.5856 17.36C42.1056 17.36 43.479 17.4 44.7056 17.48C45.959 17.5333 46.9856 17.6533 47.7856 17.84C48.3723 17.9467 48.799 18.1067 49.0656 18.32C49.359 18.5067 49.5323 18.72 49.5856 18.96C49.6656 19.2 49.7056 19.44 49.7056 19.68V20.72C49.519 20.5333 49.159 20.3867 48.6256 20.28C48.119 20.1733 47.519 20.08 46.8256 20C46.159 19.8933 45.4656 19.8133 44.7456 19.76C44.0256 19.7067 43.3456 19.6667 42.7056 19.64C42.0656 19.6133 41.559 19.6 41.1856 19.6C39.4256 19.6 38.0256 19.8133 36.9856 20.24C35.9723 20.64 35.239 21.36 34.7856 22.4C34.359 23.44 34.1456 24.92 34.1456 26.84C34.1456 28.68 34.3456 30.12 34.7456 31.16C35.1456 32.2 35.8123 32.9333 36.7456 33.36C37.679 33.7867 38.9456 34 40.5456 34C41.9856 34 43.1323 33.8667 43.9856 33.6C44.839 33.3333 45.4523 32.84 45.8256 32.12C46.2256 31.3733 46.439 30.3467 46.4656 29.04C46.4923 28.7467 46.4923 28.4933 46.4656 28.28C46.4656 28.04 46.4656 27.8533 46.4656 27.72H39.1456C39.1456 27.1333 39.1723 26.68 39.2256 26.36C39.3056 26.0133 39.4923 25.7733 39.7856 25.64C40.079 25.5067 40.5323 25.44 41.1456 25.44H50.4656V29C50.4656 30.3867 50.2923 31.5467 49.9456 32.48C49.6256 33.3867 49.079 34.12 48.3056 34.68C47.559 35.24 46.519 35.6533 45.1856 35.92C43.879 36.16 42.2523 36.28 40.3056 36.28ZM58.9794 17.6V33.72H71.1394V36H54.8994V19.16C54.8994 18.8133 54.9127 18.5333 54.9394 18.32C54.966 18.08 55.086 17.9067 55.2994 17.8C55.5127 17.6667 55.846 17.6 56.2994 17.6H58.9794ZM72.0669 36L77.6669 20.44C78.0402 19.48 78.5469 18.7467 79.1869 18.24C79.8269 17.7067 80.8669 17.44 82.3069 17.44C83.5869 17.44 84.5602 17.68 85.2269 18.16C85.9202 18.64 86.4535 19.4 86.8269 20.44L92.5469 36H88.1069L86.3869 31.2H76.9069L75.2269 36H72.0669ZM77.5469 29.48H85.6269L83.1069 22.16C83.0002 21.8133 82.8535 21.5067 82.6669 21.24C82.5069 20.9733 82.1469 20.84 81.5869 20.84C81.0002 20.84 80.6135 20.9867 80.4269 21.28C80.2402 21.5467 80.0935 21.84 79.9869 22.16L77.5469 29.48ZM95.1856 32.72C95.7723 33.0667 96.5323 33.3333 97.4656 33.52C98.4256 33.68 99.4123 33.7867 100.426 33.84C101.439 33.8667 102.319 33.88 103.066 33.88C103.359 33.88 103.692 33.88 104.066 33.88C104.466 33.8533 104.812 33.84 105.106 33.84C106.066 33.8133 106.906 33.7067 107.626 33.52C108.346 33.3067 108.892 32.96 109.266 32.48C109.666 32 109.866 31.32 109.866 30.44C109.866 29.3467 109.572 28.64 108.986 28.32C108.426 28 107.599 27.84 106.506 27.84C106.132 27.84 105.732 27.84 105.306 27.84C104.879 27.84 104.386 27.84 103.826 27.84C103.292 27.84 102.666 27.84 101.946 27.84C101.146 27.84 100.346 27.8 99.5456 27.72C98.7456 27.64 98.0256 27.4667 97.3856 27.2C96.7456 26.9067 96.2256 26.4533 95.8256 25.84C95.4256 25.2 95.2256 24.3067 95.2256 23.16C95.2256 21.8267 95.4656 20.7733 95.9456 20C96.4256 19.2267 97.0923 18.6667 97.9456 18.32C98.8256 17.9467 99.8256 17.7067 100.946 17.6C102.092 17.4933 103.346 17.44 104.706 17.44C105.506 17.44 106.386 17.4533 107.346 17.48C108.306 17.5067 109.226 17.5733 110.106 17.68C110.986 17.76 111.666 17.9067 112.146 18.12C112.706 18.1733 113.132 18.3467 113.426 18.64C113.746 18.9067 113.906 19.2533 113.906 19.68C113.906 19.76 113.906 19.8933 113.906 20.08C113.906 20.2667 113.906 20.44 113.906 20.6C113.906 20.76 113.906 20.88 113.906 20.96C113.692 20.6933 113.292 20.4933 112.706 20.36C112.146 20.2 111.506 20.08 110.786 20C110.066 19.92 109.359 19.8667 108.666 19.84C107.999 19.7867 107.426 19.76 106.946 19.76H104.226C103.319 19.76 102.506 19.84 101.786 20C101.066 20.1333 100.492 20.4267 100.066 20.88C99.639 21.3067 99.4256 21.9733 99.4256 22.88C99.4256 23.5733 99.559 24.1067 99.8256 24.48C100.119 24.8267 100.532 25.0667 101.066 25.2C101.626 25.3067 102.279 25.36 103.026 25.36C104.252 25.36 105.292 25.36 106.146 25.36C106.999 25.36 107.652 25.36 108.106 25.36C109.306 25.36 110.359 25.4667 111.266 25.68C112.199 25.8667 112.919 26.3067 113.426 27C113.959 27.6933 114.226 28.7867 114.226 30.28C114.226 31.6933 113.919 32.8267 113.306 33.68C112.692 34.5067 111.852 35.1067 110.786 35.48C109.719 35.8267 108.492 36.04 107.106 36.12C106.279 36.1733 105.479 36.2 104.706 36.2C103.932 36.2267 103.119 36.2267 102.266 36.2C101.492 36.2 100.692 36.1733 99.8656 36.12C99.039 36.0667 98.2656 35.9733 97.5456 35.84C96.8523 35.68 96.279 35.4667 95.8256 35.2C95.399 34.9333 95.1856 34.5733 95.1856 34.12V32.72ZM117.92 32.72C118.507 33.0667 119.267 33.3333 120.2 33.52C121.16 33.68 122.147 33.7867 123.16 33.84C124.173 33.8667 125.053 33.88 125.8 33.88C126.093 33.88 126.427 33.88 126.8 33.88C127.2 33.8533 127.547 33.84 127.84 33.84C128.8 33.8133 129.64 33.7067 130.36 33.52C131.08 33.3067 131.627 32.96 132 32.48C132.4 32 132.6 31.32 132.6 30.44C132.6 29.3467 132.307 28.64 131.72 28.32C131.16 28 130.333 27.84 129.24 27.84C128.867 27.84 128.467 27.84 128.04 27.84C127.613 27.84 127.12 27.84 126.56 27.84C126.027 27.84 125.4 27.84 124.68 27.84C123.88 27.84 123.08 27.8 122.28 27.72C121.48 27.64 120.76 27.4667 120.12 27.2C119.48 26.9067 118.96 26.4533 118.56 25.84C118.16 25.2 117.96 24.3067 117.96 23.16C117.96 21.8267 118.2 20.7733 118.68 20C119.16 19.2267 119.827 18.6667 120.68 18.32C121.56 17.9467 122.56 17.7067 123.68 17.6C124.827 17.4933 126.08 17.44 127.44 17.44C128.24 17.44 129.12 17.4533 130.08 17.48C131.04 17.5067 131.96 17.5733 132.84 17.68C133.72 17.76 134.4 17.9067 134.88 18.12C135.44 18.1733 135.867 18.3467 136.16 18.64C136.48 18.9067 136.64 19.2533 136.64 19.68C136.64 19.76 136.64 19.8933 136.64 20.08C136.64 20.2667 136.64 20.44 136.64 20.6C136.64 20.76 136.64 20.88 136.64 20.96C136.427 20.6933 136.027 20.4933 135.44 20.36C134.88 20.2 134.24 20.08 133.52 20C132.8 19.92 132.093 19.8667 131.4 19.84C130.733 19.7867 130.16 19.76 129.68 19.76H126.96C126.053 19.76 125.24 19.84 124.52 20C123.8 20.1333 123.227 20.4267 122.8 20.88C122.373 21.3067 122.16 21.9733 122.16 22.88C122.16 23.5733 122.293 24.1067 122.56 24.48C122.853 24.8267 123.267 25.0667 123.8 25.2C124.36 25.3067 125.013 25.36 125.76 25.36C126.987 25.36 128.027 25.36 128.88 25.36C129.733 25.36 130.387 25.36 130.84 25.36C132.04 25.36 133.093 25.4667 134 25.68C134.933 25.8667 135.653 26.3067 136.16 27C136.693 27.6933 136.96 28.7867 136.96 30.28C136.96 31.6933 136.653 32.8267 136.04 33.68C135.427 34.5067 134.587 35.1067 133.52 35.48C132.453 35.8267 131.227 36.04 129.84 36.12C129.013 36.1733 128.213 36.2 127.44 36.2C126.667 36.2267 125.853 36.2267 125 36.2C124.227 36.2 123.427 36.1733 122.6 36.12C121.773 36.0667 121 35.9733 120.28 35.84C119.587 35.68 119.013 35.4667 118.56 35.2C118.133 34.9333 117.92 34.5733 117.92 34.12V32.72ZM140.414 37.52L150.254 13.12H153.014L143.174 37.52H140.414ZM156.351 26.8C156.351 24.9067 156.551 23.36 156.951 22.16C157.351 20.9333 157.991 19.9733 158.871 19.28C159.778 18.5867 160.951 18.1067 162.391 17.84C163.858 17.5467 165.644 17.4 167.751 17.4C168.764 17.4 169.724 17.44 170.631 17.52C171.564 17.5733 172.524 17.68 173.511 17.84C174.391 17.9733 174.964 18.1867 175.231 18.48C175.524 18.7467 175.671 19.12 175.671 19.6V20.92C175.058 20.6533 174.284 20.44 173.351 20.28C172.418 20.0933 171.458 19.96 170.471 19.88C169.511 19.7733 168.644 19.72 167.871 19.72C166.111 19.72 164.684 19.92 163.591 20.32C162.524 20.72 161.751 21.4267 161.271 22.44C160.791 23.4533 160.551 24.9067 160.551 26.8C160.551 28.6933 160.778 30.16 161.231 31.2C161.711 32.2133 162.498 32.92 163.591 33.32C164.711 33.72 166.231 33.92 168.151 33.92C168.898 33.92 169.711 33.88 170.591 33.8C171.471 33.6933 172.351 33.56 173.231 33.4C174.111 33.24 174.924 33.0533 175.671 32.84V34.08C175.671 34.5067 175.524 34.8667 175.231 35.16C174.964 35.4533 174.364 35.6667 173.431 35.8C172.471 35.9867 171.511 36.1067 170.551 36.16C169.591 36.2133 168.618 36.24 167.631 36.24C165.471 36.24 163.658 36.1067 162.191 35.84C160.751 35.5733 159.604 35.0933 158.751 34.4C157.898 33.7067 157.284 32.7467 156.911 31.52C156.538 30.2933 156.351 28.72 156.351 26.8ZM189.059 36.28C187.326 36.28 185.793 36.16 184.459 35.92C183.153 35.6533 182.046 35.1867 181.139 34.52C180.259 33.8533 179.593 32.9067 179.139 31.68C178.713 30.4267 178.499 28.7867 178.499 26.76C178.499 24.7333 178.739 23.0933 179.219 21.84C179.699 20.5867 180.393 19.6267 181.299 18.96C182.233 18.2933 183.366 17.8533 184.699 17.64C186.059 17.4 187.606 17.28 189.339 17.28C191.073 17.28 192.593 17.4133 193.899 17.68C195.206 17.92 196.299 18.3733 197.179 19.04C198.086 19.7067 198.753 20.6667 199.179 21.92C199.633 23.1467 199.859 24.76 199.859 26.76C199.859 28.8133 199.619 30.4667 199.139 31.72C198.659 32.9467 197.953 33.8933 197.019 34.56C196.113 35.2267 194.993 35.68 193.659 35.92C192.326 36.16 190.793 36.28 189.059 36.28ZM189.139 34.04C190.206 34.04 191.139 33.9467 191.939 33.76C192.766 33.5733 193.446 33.2267 193.979 32.72C194.539 32.2133 194.953 31.48 195.219 30.52C195.486 29.56 195.619 28.3067 195.619 26.76C195.619 25.24 195.486 24 195.219 23.04C194.953 22.08 194.539 21.3467 193.979 20.84C193.446 20.3333 192.766 19.9867 191.939 19.8C191.139 19.6133 190.206 19.52 189.139 19.52C188.073 19.52 187.139 19.6133 186.339 19.8C185.539 19.9867 184.873 20.3333 184.339 20.84C183.806 21.3467 183.406 22.08 183.139 23.04C182.873 24 182.739 25.24 182.739 26.76C182.739 28.3067 182.873 29.56 183.139 30.52C183.406 31.48 183.806 32.2133 184.339 32.72C184.873 33.2267 185.539 33.5733 186.339 33.76C187.139 33.9467 188.073 34.04 189.139 34.04ZM224.548 26.92C224.548 29.0533 224.308 30.7333 223.828 31.96C223.374 33.1867 222.694 34.0933 221.788 34.68C220.908 35.2667 219.801 35.6533 218.468 35.84C217.134 36 215.601 36.08 213.868 36.08C212.961 36.08 212.054 36.0667 211.148 36.04C210.241 36.04 209.348 36.04 208.468 36.04C207.614 36.04 206.828 36.0267 206.108 36C205.414 36 204.828 36 204.348 36V20.16C204.348 19.3067 204.481 18.68 204.748 18.28C205.014 17.88 205.641 17.6533 206.628 17.6C207.108 17.5733 207.708 17.56 208.428 17.56C209.174 17.56 209.948 17.56 210.748 17.56C211.574 17.5333 212.361 17.52 213.108 17.52C213.881 17.52 214.561 17.5333 215.148 17.56C216.748 17.6133 218.134 17.7467 219.308 17.96C220.481 18.1467 221.454 18.56 222.228 19.2C223.028 19.8133 223.614 20.7333 223.988 21.96C224.361 23.1867 224.548 24.84 224.548 26.92ZM208.468 33.8C208.654 33.8 208.974 33.8133 209.428 33.84C209.881 33.84 210.374 33.84 210.908 33.84C211.441 33.84 211.961 33.8533 212.468 33.88C212.974 33.88 213.374 33.88 213.668 33.88C214.921 33.88 215.961 33.7867 216.788 33.6C217.641 33.4133 218.334 33.08 218.868 32.6C219.401 32.12 219.774 31.4267 219.988 30.52C220.228 29.5867 220.348 28.4 220.348 26.96C220.348 24.96 220.134 23.44 219.708 22.4C219.308 21.36 218.628 20.6533 217.668 20.28C216.734 19.9067 215.428 19.72 213.748 19.72C213.401 19.72 212.908 19.72 212.268 19.72C211.654 19.72 211.041 19.7333 210.428 19.76C209.814 19.76 209.321 19.7867 208.948 19.84C208.788 19.9467 208.668 20.0933 208.588 20.28C208.508 20.44 208.468 20.76 208.468 21.24V33.8ZM229.235 36V19.12C229.235 18.5333 229.315 18.1333 229.475 17.92C229.662 17.7067 230.049 17.6 230.635 17.6H247.275V19.88H233.355V25.28H246.075V27.56H233.355V33.72H247.275V36H229.235ZM259.574 27.36L251.054 22.52V20.08L262.654 26.6V28.08L251.054 34.48V32.04L259.574 27.36Z" fill="#009688"/>
<path d="M43.4874 50V47.024L40.6554 43.04L40.3674 42.64H42.5914L44.7034 45.904L46.8154 42.64H48.3034L47.9354 43.088L45.1354 47.024V49.328C45.1461 49.4987 45.1301 49.6373 45.0874 49.744C45.0448 49.84 44.9701 49.9093 44.8634 49.952C44.7568 49.984 44.6074 50 44.4154 50H43.4874ZM53.7784 50.112C53.0851 50.112 52.4718 50.064 51.9384 49.968C51.4158 49.8613 50.9731 49.6747 50.6104 49.408C50.2584 49.1413 49.9918 48.7627 49.8104 48.272C49.6398 47.7707 49.5544 47.1147 49.5544 46.304C49.5544 45.4933 49.6504 44.8373 49.8424 44.336C50.0344 43.8347 50.3118 43.4507 50.6744 43.184C51.0478 42.9173 51.5011 42.7413 52.0344 42.656C52.5784 42.56 53.1971 42.512 53.8904 42.512C54.5838 42.512 55.1918 42.5653 55.7144 42.672C56.2371 42.768 56.6744 42.9493 57.0264 43.216C57.3891 43.4827 57.6558 43.8667 57.8264 44.368C58.0078 44.8587 58.0984 45.504 58.0984 46.304C58.0984 47.1253 58.0024 47.7867 57.8104 48.288C57.6184 48.7787 57.3358 49.1573 56.9624 49.424C56.5998 49.6907 56.1518 49.872 55.6184 49.968C55.0851 50.064 54.4718 50.112 53.7784 50.112ZM53.8104 49.216C54.2371 49.216 54.6104 49.1787 54.9304 49.104C55.2611 49.0293 55.5331 48.8907 55.7464 48.688C55.9704 48.4853 56.1358 48.192 56.2424 47.808C56.3491 47.424 56.4024 46.9227 56.4024 46.304C56.4024 45.696 56.3491 45.2 56.2424 44.816C56.1358 44.432 55.9704 44.1387 55.7464 43.936C55.5331 43.7333 55.2611 43.5947 54.9304 43.52C54.6104 43.4453 54.2371 43.408 53.8104 43.408C53.3838 43.408 53.0104 43.4453 52.6904 43.52C52.3704 43.5947 52.1038 43.7333 51.8904 43.936C51.6771 44.1387 51.5171 44.432 51.4104 44.816C51.3038 45.2 51.2504 45.696 51.2504 46.304C51.2504 46.9227 51.3038 47.424 51.4104 47.808C51.5171 48.192 51.6771 48.4853 51.8904 48.688C52.1038 48.8907 52.3704 49.0293 52.6904 49.104C53.0104 49.1787 53.3838 49.216 53.8104 49.216ZM68.1818 46.704C68.1818 47.2053 68.1551 47.664 68.1018 48.08C68.0591 48.496 67.9151 48.8533 67.6698 49.152C67.4351 49.44 67.0565 49.664 66.5338 49.824C66.0218 49.9733 65.2965 50.048 64.3578 50.048C63.6111 50.048 62.9978 50 62.5178 49.904C62.0485 49.7973 61.6805 49.648 61.4138 49.456C61.1578 49.264 60.9711 49.04 60.8538 48.784C60.7365 48.5173 60.6671 48.2187 60.6458 47.888C60.6245 47.5467 60.6138 47.1893 60.6138 46.816V43.44C60.6138 43.216 60.6191 43.0507 60.6298 42.944C60.6405 42.8267 60.6885 42.7467 60.7738 42.704C60.8698 42.6613 61.0245 42.64 61.2378 42.64H62.2618V47.36C62.2618 47.8293 62.3311 48.192 62.4698 48.448C62.6085 48.6933 62.8325 48.864 63.1418 48.96C63.4618 49.056 63.8725 49.104 64.3738 49.104C65.1525 49.104 65.7071 48.9707 66.0378 48.704C66.3685 48.4373 66.5338 47.9893 66.5338 47.36V42.64H67.5418C67.7551 42.64 67.9045 42.6613 67.9898 42.704C68.0858 42.7467 68.1391 42.8267 68.1498 42.944C68.1711 43.0507 68.1818 43.216 68.1818 43.44V46.704ZM76.2801 50C76.2801 48.8693 76.2801 47.744 76.2801 46.624C76.2801 45.4933 76.2801 44.368 76.2801 43.248C76.2801 43.1093 76.2854 42.9973 76.2961 42.912C76.3174 42.8267 76.3654 42.7627 76.4401 42.72C76.5254 42.6667 76.6587 42.64 76.8401 42.64H77.9281V50H76.2801ZM89.1426 46.368C89.1426 47.2213 89.0466 47.8933 88.8546 48.384C88.6732 48.8747 88.4012 49.2373 88.0386 49.472C87.6866 49.7067 87.2439 49.8613 86.7106 49.936C86.1772 50 85.5639 50.032 84.8706 50.032C84.5079 50.032 84.1452 50.0267 83.7826 50.016C83.4199 50.016 83.0626 50.016 82.7106 50.016C82.3692 50.016 82.0546 50.0107 81.7666 50C81.4892 50 81.2546 50 81.0626 50V43.664C81.0626 43.3227 81.1159 43.072 81.2226 42.912C81.3292 42.752 81.5799 42.6613 81.9746 42.64C82.1666 42.6293 82.4066 42.624 82.6946 42.624C82.9932 42.624 83.3026 42.624 83.6226 42.624C83.9532 42.6133 84.2679 42.608 84.5666 42.608C84.8759 42.608 85.1479 42.6133 85.3826 42.624C86.0226 42.6453 86.5772 42.6987 87.0466 42.784C87.5159 42.8587 87.9052 43.024 88.2146 43.28C88.5346 43.5253 88.7692 43.8933 88.9186 44.384C89.0679 44.8747 89.1426 45.536 89.1426 46.368ZM82.7106 49.12C82.7852 49.12 82.9132 49.1253 83.0946 49.136C83.2759 49.136 83.4732 49.136 83.6866 49.136C83.8999 49.136 84.1079 49.1413 84.3106 49.152C84.5132 49.152 84.6732 49.152 84.7906 49.152C85.2919 49.152 85.7079 49.1147 86.0386 49.04C86.3799 48.9653 86.6572 48.832 86.8706 48.64C87.0839 48.448 87.2332 48.1707 87.3186 47.808C87.4146 47.4347 87.4626 46.96 87.4626 46.384C87.4626 45.584 87.3772 44.976 87.2066 44.56C87.0466 44.144 86.7746 43.8613 86.3906 43.712C86.0172 43.5627 85.4946 43.488 84.8226 43.488C84.6839 43.488 84.4866 43.488 84.2306 43.488C83.9852 43.488 83.7399 43.4933 83.4946 43.504C83.2492 43.504 83.0519 43.5147 82.9026 43.536C82.8386 43.5787 82.7906 43.6373 82.7586 43.712C82.7266 43.776 82.7106 43.904 82.7106 44.096V49.12ZM91.8176 50V43.248C91.8176 43.0133 91.8496 42.8533 91.9136 42.768C91.9882 42.6827 92.1429 42.64 92.3776 42.64H99.0336V43.552H93.4656V45.712H98.5536V46.624H93.4656V49.088H99.0336V50H91.8176ZM100.625 50L102.865 43.776C103.015 43.392 103.217 43.0987 103.473 42.896C103.729 42.6827 104.145 42.576 104.721 42.576C105.233 42.576 105.623 42.672 105.889 42.864C106.167 43.056 106.38 43.36 106.529 43.776L108.817 50H107.041L106.353 48.08H102.561L101.889 50H100.625ZM102.817 47.392H106.049L105.041 44.464C104.999 44.3253 104.94 44.2027 104.865 44.096C104.801 43.9893 104.657 43.936 104.433 43.936C104.199 43.936 104.044 43.9947 103.969 44.112C103.895 44.2187 103.836 44.336 103.793 44.464L102.817 47.392ZM108.991 42.64H116.735V43.552H113.695V49.376C113.695 49.6107 113.657 49.776 113.583 49.872C113.519 49.9573 113.364 50 113.119 50H112.047V43.552H108.991V42.64ZM119.093 50V43.248C119.093 43.0133 119.125 42.8533 119.189 42.768C119.263 42.6827 119.418 42.64 119.653 42.64H126.309V43.552H120.741V45.712H125.829V46.624H120.741V49.088H126.309V50H119.093ZM133.879 49.472C133.879 49.2267 133.959 49.0773 134.119 49.024C134.279 48.96 134.471 48.928 134.695 48.928C134.919 48.928 135.1 48.96 135.239 49.024C135.388 49.0773 135.463 49.2267 135.463 49.472C135.463 49.6427 135.426 49.7707 135.351 49.856C135.287 49.9307 135.196 49.9787 135.079 50C134.962 50.0213 134.828 50.032 134.679 50.032C134.53 50.032 134.396 50.0213 134.279 50C134.162 49.9787 134.066 49.9307 133.991 49.856C133.916 49.7707 133.879 49.6427 133.879 49.472ZM145.085 50C144.776 50 144.52 49.9627 144.317 49.888C144.115 49.8133 143.955 49.68 143.837 49.488C143.72 49.296 143.635 49.0347 143.581 48.704L142.653 42.64H144.189L144.973 48.016C145.016 48.272 145.075 48.4427 145.149 48.528C145.224 48.6133 145.363 48.656 145.565 48.656H145.965L147.277 42.64H148.877L150.301 48.656H150.733C150.893 48.656 151.011 48.624 151.085 48.56C151.16 48.4853 151.213 48.368 151.245 48.208L151.917 42.64H153.085L152.253 48.752C152.211 49.104 152.12 49.3707 151.981 49.552C151.853 49.7333 151.672 49.856 151.437 49.92C151.203 49.9733 150.904 50 150.541 50H149.277L148.141 45.024L147.997 44.4L147.869 45.04L146.829 50H145.085ZM155.827 50V43.248C155.827 43.0133 155.859 42.8533 155.923 42.768C155.998 42.6827 156.152 42.64 156.387 42.64H163.043V43.552H157.475V45.712H162.563V46.624H157.475V49.088H163.043V50H155.827ZM170.661 50V43.248C170.661 43.0133 170.693 42.8533 170.757 42.768C170.832 42.6827 170.987 42.64 171.221 42.64H177.877V43.552H172.309V45.712H177.397V46.624H172.309V49.088H177.877V50H170.661ZM186.077 50C185.917 50 185.773 49.9893 185.645 49.968C185.528 49.936 185.416 49.888 185.309 49.824C185.202 49.76 185.09 49.6587 184.973 49.52L182.797 46.752L179.501 42.624H181.661L183.917 45.632L186.925 49.248C187.085 49.4293 187.213 49.584 187.309 49.712C187.405 49.8293 187.501 49.9253 187.597 50H186.077ZM180.317 50H179.357C179.485 49.8933 179.613 49.7707 179.741 49.632C179.869 49.4827 179.992 49.3493 180.109 49.232L182.941 45.92L185.757 42.624H187.277L183.821 46.592L181.325 49.6C181.208 49.728 181.074 49.8293 180.925 49.904C180.776 49.968 180.573 50 180.317 50ZM189.793 50V43.248C189.793 43.0133 189.825 42.8533 189.889 42.768C189.963 42.6827 190.118 42.64 190.353 42.64H197.009V43.552H191.441V45.712H196.529V46.624H191.441V49.088H197.009V50H189.793ZM199.048 46.32C199.048 45.5627 199.128 44.944 199.288 44.464C199.448 43.9733 199.704 43.5893 200.056 43.312C200.419 43.0347 200.888 42.8427 201.464 42.736C202.051 42.6187 202.766 42.56 203.608 42.56C204.014 42.56 204.398 42.576 204.76 42.608C205.134 42.6293 205.518 42.672 205.912 42.736C206.264 42.7893 206.494 42.8747 206.6 42.992C206.718 43.0987 206.776 43.248 206.776 43.44V43.968C206.531 43.8613 206.222 43.776 205.848 43.712C205.475 43.6373 205.091 43.584 204.696 43.552C204.312 43.5093 203.966 43.488 203.656 43.488C202.952 43.488 202.382 43.568 201.944 43.728C201.518 43.888 201.208 44.1707 201.016 44.576C200.824 44.9813 200.728 45.5627 200.728 46.32C200.728 47.0773 200.819 47.664 201 48.08C201.192 48.4853 201.507 48.768 201.944 48.928C202.392 49.088 203 49.168 203.768 49.168C204.067 49.168 204.392 49.152 204.744 49.12C205.096 49.0773 205.448 49.024 205.8 48.96C206.152 48.896 206.478 48.8213 206.776 48.736V49.232C206.776 49.4027 206.718 49.5467 206.6 49.664C206.494 49.7813 206.254 49.8667 205.88 49.92C205.496 49.9947 205.112 50.0427 204.728 50.064C204.344 50.0853 203.955 50.096 203.56 50.096C202.696 50.096 201.971 50.0427 201.384 49.936C200.808 49.8293 200.35 49.6373 200.008 49.36C199.667 49.0827 199.422 48.6987 199.272 48.208C199.123 47.7173 199.048 47.088 199.048 46.32ZM216.676 46.704C216.676 47.2053 216.649 47.664 216.596 48.08C216.553 48.496 216.409 48.8533 216.164 49.152C215.929 49.44 215.55 49.664 215.028 49.824C214.516 49.9733 213.79 50.048 212.852 50.048C212.105 50.048 211.492 50 211.012 49.904C210.542 49.7973 210.174 49.648 209.908 49.456C209.652 49.264 209.465 49.04 209.348 48.784C209.23 48.5173 209.161 48.2187 209.14 47.888C209.118 47.5467 209.108 47.1893 209.108 46.816V43.44C209.108 43.216 209.113 43.0507 209.124 42.944C209.134 42.8267 209.182 42.7467 209.268 42.704C209.364 42.6613 209.518 42.64 209.732 42.64H210.756V47.36C210.756 47.8293 210.825 48.192 210.964 48.448C211.102 48.6933 211.326 48.864 211.636 48.96C211.956 49.056 212.366 49.104 212.868 49.104C213.646 49.104 214.201 48.9707 214.532 48.704C214.862 48.4373 215.028 47.9893 215.028 47.36V42.64H216.036C216.249 42.64 216.398 42.6613 216.484 42.704C216.58 42.7467 216.633 42.8267 216.644 42.944C216.665 43.0507 216.676 43.216 216.676 43.44V46.704ZM218.875 42.64H226.619V43.552H223.579V49.376C223.579 49.6107 223.542 49.776 223.467 49.872C223.403 49.9573 223.248 50 223.003 50H221.931V43.552H218.875V42.64ZM228.977 50V43.248C228.977 43.0133 229.009 42.8533 229.073 42.768C229.148 42.6827 229.302 42.64 229.537 42.64H236.193V43.552H230.625V45.712H235.713V46.624H230.625V49.088H236.193V50H228.977Z" fill="white"/>
</svg>
